<svg xmlns="http://www.w3.org/2000/svg" version="1.1" xmlns:xlink="http://www.w3.org/1999/xlink" xmlns:svgjs="http://svgjs.com/svgjs" width="1440" height="560" preserveAspectRatio="none" viewBox="0 0 1440 560"><g mask="url(&quot;#SvgjsMask1296&quot;)" fill="none"><g mask="url(&quot;#SvgjsMask1297&quot;)"><path d="M14 294L42 294L70 294L98 294M126 266L154 238L182 238L210 238L238 238M-14 294L14 294L42 266L70 266L98 266L126 266L154 266L182 266" stroke="rgba(189, 15, 225, 1)" stroke-width="4.67"></path><path d="M175 266 a7 7 0 1 0 14 0 a7 7 0 1 0 -14 0zM91 294 a7 7 0 1 0 14 0 a7 7 0 1 0 -14 0zM231 238 a7 7 0 1 0 14 0 a7 7 0 1 0 -14 0z" fill="rgba(189, 15, 225, 1)"></path><path d="M-14 266L14 266L42 238L70 238L98 238" stroke="rgba(189, 15, 225, 1)" stroke-width="4.67"></path><path d="M91 238 a7 7 0 1 0 14 0 a7 7 0 1 0 -14 0z" fill="rgba(189, 15, 225, 1)"></path><path d="M-14 322L14 322L42 322L70 322L98 322" stroke="rgba(189, 15, 225, 1)" stroke-width="4.67"></path><path d="M91 322 a7 7 0 1 0 14 0 a7 7 0 1 0 -14 0z" fill="rgba(189, 15, 225, 1)"></path><path d="M546 210L574 238L602 238M686 238L714 210M378 238L406 210L434 210L462 210L490 182M294 210L322 238L350 266L378 266L406 294L434 294L462 294L490 294M602 210L630 182M490 210L518 238L546 238L574 266L602 266L630 266M462 238L490 238L518 266M770 238L798 238L826 238L854 238L882 238L910 238M-14 238L14 238L42 210L70 210L98 210L126 210L154 210L182 210L210 210L238 210L266 210L294 210L322 210L350 238L378 238L406 238L434 238L462 238L490 210L518 210L546 210L574 210L602 210L630 210L658 238L686 238L714 238L742 238L770 238L798 266L826 266L854 266L882 266" stroke="rgba(189, 15, 225, 1)" stroke-width="4.67"></path><path d="M875 266 a7 7 0 1 0 14 0 a7 7 0 1 0 -14 0zM595 238 a7 7 0 1 0 14 0 a7 7 0 1 0 -14 0zM707 210 a7 7 0 1 0 14 0 a7 7 0 1 0 -14 0zM483 182 a7 7 0 1 0 14 0 a7 7 0 1 0 -14 0zM483 294 a7 7 0 1 0 14 0 a7 7 0 1 0 -14 0zM623 182 a7 7 0 1 0 14 0 a7 7 0 1 0 -14 0zM623 266 a7 7 0 1 0 14 0 a7 7 0 1 0 -14 0zM511 266 a7 7 0 1 0 14 0 a7 7 0 1 0 -14 0zM903 238 a7 7 0 1 0 14 0 a7 7 0 1 0 -14 0z" fill="rgba(189, 15, 225, 1)"></path><path d="M322 350L350 378L378 378L406 378L434 378L462 378M434 322L462 350L490 350L518 350L546 350L574 378L602 378L630 378L658 378L686 378L714 378M238 350L266 322L294 294L322 294L350 294L378 294M154 350L182 350L210 350M714 350L742 322L770 294L798 294M378 322L406 350M210 322L238 322L266 294L294 266L322 266M-14 350L14 350L42 350L70 350L98 350L126 350L154 350L182 322L210 322L238 350L266 350L294 350L322 350L350 350L378 322L406 322L434 322L462 322L490 322L518 322L546 322L574 350L602 350L630 350L658 350L686 350L714 350L742 350L770 322L798 322" stroke="rgba(189, 15, 225, 1)" stroke-width="4.67"></path><path d="M791 322 a7 7 0 1 0 14 0 a7 7 0 1 0 -14 0zM455 378 a7 7 0 1 0 14 0 a7 7 0 1 0 -14 0zM707 378 a7 7 0 1 0 14 0 a7 7 0 1 0 -14 0zM371 294 a7 7 0 1 0 14 0 a7 7 0 1 0 -14 0zM203 350 a7 7 0 1 0 14 0 a7 7 0 1 0 -14 0zM791 294 a7 7 0 1 0 14 0 a7 7 0 1 0 -14 0zM399 350 a7 7 0 1 0 14 0 a7 7 0 1 0 -14 0zM315 266 a7 7 0 1 0 14 0 a7 7 0 1 0 -14 0z" fill="rgba(189, 15, 225, 1)"></path><path d="M350 154L378 182L406 182M266 154L294 182L322 182M238 182L266 182M-14 210L14 210L42 182L70 182L98 182L126 182L154 182L182 182L210 182L238 182L266 154L294 154L322 154L350 154L378 154L406 154L434 154" stroke="rgba(189, 15, 225, 1)" stroke-width="4.67"></path><path d="M427 154 a7 7 0 1 0 14 0 a7 7 0 1 0 -14 0zM399 182 a7 7 0 1 0 14 0 a7 7 0 1 0 -14 0zM315 182 a7 7 0 1 0 14 0 a7 7 0 1 0 -14 0zM259 182 a7 7 0 1 0 14 0 a7 7 0 1 0 -14 0z" fill="rgba(189, 15, 225, 1)"></path><path d="M434 462L462 434L490 434L518 434M322 434L350 406L378 406L406 406L434 406L462 406L490 378M210 406L238 406L266 406L294 406L322 406M490 462L518 490L546 490L574 490M350 434L378 434L406 434L434 434M-14 378L14 406L42 406L70 406L98 406L126 406L154 406L182 406L210 406L238 434L266 434L294 434L322 434L350 434L378 462L406 462L434 462L462 462L490 462L518 462L546 462L574 462L602 462" stroke="rgba(189, 15, 225, 1)" stroke-width="4.67"></path><path d="M595 462 a7 7 0 1 0 14 0 a7 7 0 1 0 -14 0zM511 434 a7 7 0 1 0 14 0 a7 7 0 1 0 -14 0zM483 378 a7 7 0 1 0 14 0 a7 7 0 1 0 -14 0zM315 406 a7 7 0 1 0 14 0 a7 7 0 1 0 -14 0zM567 490 a7 7 0 1 0 14 0 a7 7 0 1 0 -14 0zM427 434 a7 7 0 1 0 14 0 a7 7 0 1 0 -14 0z" fill="rgba(189, 15, 225, 1)"></path><path d="M322 126L350 98L378 98L406 98M182 154L210 126M294 126L322 98L350 70L378 70L406 70M266 126L294 98L322 70M-14 182L14 182L42 154L70 154L98 154L126 154L154 154L182 154L210 154L238 154L266 126L294 126L322 126L350 126L378 126L406 126" stroke="rgba(189, 15, 225, 1)" stroke-width="4.67"></path><path d="M399 126 a7 7 0 1 0 14 0 a7 7 0 1 0 -14 0zM399 98 a7 7 0 1 0 14 0 a7 7 0 1 0 -14 0zM203 126 a7 7 0 1 0 14 0 a7 7 0 1 0 -14 0zM399 70 a7 7 0 1 0 14 0 a7 7 0 1 0 -14 0zM315 70 a7 7 0 1 0 14 0 a7 7 0 1 0 -14 0z" fill="rgba(189, 15, 225, 1)"></path><path d="M-14 406L14 434" stroke="rgba(189, 15, 225, 1)" stroke-width="4.67"></path><path d="M7 434 a7 7 0 1 0 14 0 a7 7 0 1 0 -14 0z" fill="rgba(189, 15, 225, 1)"></path><path d="M98 126L126 98M42 126L70 98M-14 154L14 154L42 126L70 126L98 126L126 126L154 126" stroke="rgba(189, 15, 225, 1)" stroke-width="4.67"></path><path d="M147 126 a7 7 0 1 0 14 0 a7 7 0 1 0 -14 0zM119 98 a7 7 0 1 0 14 0 a7 7 0 1 0 -14 0zM63 98 a7 7 0 1 0 14 0 a7 7 0 1 0 -14 0z" fill="rgba(189, 15, 225, 1)"></path></g></g><defs><mask id="SvgjsMask1296"><rect width="1440" height="560" fill="#ffffff"></rect></mask><mask id="SvgjsMask1297"><rect width="1440" height="560" fill="white"></rect><path d="M178.5 266 a3.5 3.5 0 1 0 7 0 a3.5 3.5 0 1 0 -7 0zM94.5 294 a3.5 3.5 0 1 0 7 0 a3.5 3.5 0 1 0 -7 0zM234.5 238 a3.5 3.5 0 1 0 7 0 a3.5 3.5 0 1 0 -7 0z" fill="black"></path><path d="M94.5 238 a3.5 3.5 0 1 0 7 0 a3.5 3.5 0 1 0 -7 0z" fill="black"></path><path d="M94.5 322 a3.5 3.5 0 1 0 7 0 a3.5 3.5 0 1 0 -7 0z" fill="black"></path><path d="M878.5 266 a3.5 3.5 0 1 0 7 0 a3.5 3.5 0 1 0 -7 0zM598.5 238 a3.5 3.5 0 1 0 7 0 a3.5 3.5 0 1 0 -7 0zM710.5 210 a3.5 3.5 0 1 0 7 0 a3.5 3.5 0 1 0 -7 0zM486.5 182 a3.5 3.5 0 1 0 7 0 a3.5 3.5 0 1 0 -7 0zM486.5 294 a3.5 3.5 0 1 0 7 0 a3.5 3.5 0 1 0 -7 0zM626.5 182 a3.5 3.5 0 1 0 7 0 a3.5 3.5 0 1 0 -7 0zM626.5 266 a3.5 3.5 0 1 0 7 0 a3.5 3.5 0 1 0 -7 0zM514.5 266 a3.5 3.5 0 1 0 7 0 a3.5 3.5 0 1 0 -7 0zM906.5 238 a3.5 3.5 0 1 0 7 0 a3.5 3.5 0 1 0 -7 0z" fill="black"></path><path d="M794.5 322 a3.5 3.5 0 1 0 7 0 a3.5 3.5 0 1 0 -7 0zM458.5 378 a3.5 3.5 0 1 0 7 0 a3.5 3.5 0 1 0 -7 0zM710.5 378 a3.5 3.5 0 1 0 7 0 a3.5 3.5 0 1 0 -7 0zM374.5 294 a3.5 3.5 0 1 0 7 0 a3.5 3.5 0 1 0 -7 0zM206.5 350 a3.5 3.5 0 1 0 7 0 a3.5 3.5 0 1 0 -7 0zM794.5 294 a3.5 3.5 0 1 0 7 0 a3.5 3.5 0 1 0 -7 0zM402.5 350 a3.5 3.5 0 1 0 7 0 a3.5 3.5 0 1 0 -7 0zM318.5 266 a3.5 3.5 0 1 0 7 0 a3.5 3.5 0 1 0 -7 0z" fill="black"></path><path d="M430.5 154 a3.5 3.5 0 1 0 7 0 a3.5 3.5 0 1 0 -7 0zM402.5 182 a3.5 3.5 0 1 0 7 0 a3.5 3.5 0 1 0 -7 0zM318.5 182 a3.5 3.5 0 1 0 7 0 a3.5 3.5 0 1 0 -7 0zM262.5 182 a3.5 3.5 0 1 0 7 0 a3.5 3.5 0 1 0 -7 0z" fill="black"></path><path d="M598.5 462 a3.5 3.5 0 1 0 7 0 a3.5 3.5 0 1 0 -7 0zM514.5 434 a3.5 3.5 0 1 0 7 0 a3.5 3.5 0 1 0 -7 0zM486.5 378 a3.5 3.5 0 1 0 7 0 a3.5 3.5 0 1 0 -7 0zM318.5 406 a3.5 3.5 0 1 0 7 0 a3.5 3.5 0 1 0 -7 0zM570.5 490 a3.5 3.5 0 1 0 7 0 a3.5 3.5 0 1 0 -7 0zM430.5 434 a3.5 3.5 0 1 0 7 0 a3.5 3.5 0 1 0 -7 0z" fill="black"></path><path d="M402.5 126 a3.5 3.5 0 1 0 7 0 a3.5 3.5 0 1 0 -7 0zM402.5 98 a3.5 3.5 0 1 0 7 0 a3.5 3.5 0 1 0 -7 0zM206.5 126 a3.5 3.5 0 1 0 7 0 a3.5 3.5 0 1 0 -7 0zM402.5 70 a3.5 3.5 0 1 0 7 0 a3.5 3.5 0 1 0 -7 0zM318.5 70 a3.5 3.5 0 1 0 7 0 a3.5 3.5 0 1 0 -7 0z" fill="black"></path><path d="M10.5 434 a3.5 3.5 0 1 0 7 0 a3.5 3.5 0 1 0 -7 0z" fill="black"></path><path d="M150.5 126 a3.5 3.5 0 1 0 7 0 a3.5 3.5 0 1 0 -7 0zM122.5 98 a3.5 3.5 0 1 0 7 0 a3.5 3.5 0 1 0 -7 0zM66.5 98 a3.5 3.5 0 1 0 7 0 a3.5 3.5 0 1 0 -7 0z" fill="black"></path></mask></defs></svg>