<svg xmlns="http://www.w3.org/2000/svg" version="1.1" xmlns:xlink="http://www.w3.org/1999/xlink" xmlns:svgjs="http://svgjs.com/svgjs" width="1440" height="560" preserveAspectRatio="none" viewBox="0 0 1440 560"><g mask="url(&quot;#SvgjsMask1312&quot;)" fill="none"><g mask="url(&quot;#SvgjsMask1313&quot;)"><path d="M1414 266L1386 294L1358 294L1330 294M1302 266L1274 294L1246 294L1218 266L1190 266M1442 294L1414 294M1470 294L1442 294L1414 266L1386 266L1358 266L1330 266L1302 266L1274 266L1246 266" stroke="rgba(189, 15, 225, 1)" stroke-width="4.67"></path><path d="M1239 266 a7 7 0 1 0 14 0 a7 7 0 1 0 -14 0zM1323 294 a7 7 0 1 0 14 0 a7 7 0 1 0 -14 0zM1183 266 a7 7 0 1 0 14 0 a7 7 0 1 0 -14 0zM1407 294 a7 7 0 1 0 14 0 a7 7 0 1 0 -14 0z" fill="rgba(189, 15, 225, 1)"></path><path d="M910 266L882 294L854 294L826 294L798 294L770 294L742 294M1162 238L1134 266L1106 294M1106 266L1078 266L1050 266M658 266L630 294L602 294L574 294L546 294L518 294L490 294M546 266L518 238M1078 294L1050 322L1022 350L994 378M490 266L462 238L434 238M630 266L602 238L574 238L546 238L518 210L490 210L462 210L434 210M966 322L938 322L910 322M1470 266L1442 266L1414 238L1386 238L1358 238L1330 238L1302 238L1274 238L1246 238L1218 238L1190 238L1162 238L1134 238L1106 266L1078 294L1050 294L1022 322L994 322L966 322L938 294L910 266L882 266L854 266L826 266L798 266L770 266L742 266L714 266L686 266L658 266L630 266L602 266L574 266L546 266L518 266L490 266L462 266" stroke="rgba(189, 15, 225, 1)" stroke-width="4.67"></path><path d="M455 266 a7 7 0 1 0 14 0 a7 7 0 1 0 -14 0zM735 294 a7 7 0 1 0 14 0 a7 7 0 1 0 -14 0zM1099 294 a7 7 0 1 0 14 0 a7 7 0 1 0 -14 0zM1043 266 a7 7 0 1 0 14 0 a7 7 0 1 0 -14 0zM483 294 a7 7 0 1 0 14 0 a7 7 0 1 0 -14 0zM511 238 a7 7 0 1 0 14 0 a7 7 0 1 0 -14 0zM987 378 a7 7 0 1 0 14 0 a7 7 0 1 0 -14 0zM427 238 a7 7 0 1 0 14 0 a7 7 0 1 0 -14 0zM427 210 a7 7 0 1 0 14 0 a7 7 0 1 0 -14 0zM903 322 a7 7 0 1 0 14 0 a7 7 0 1 0 -14 0z" fill="rgba(189, 15, 225, 1)"></path><path d="M1358 322L1330 350L1302 350L1274 350L1246 350M1414 322L1386 350L1358 350M1218 322L1190 350M1470 322L1442 322L1414 322L1386 322L1358 322L1330 322L1302 322L1274 322L1246 322L1218 322L1190 322L1162 322L1134 322L1106 322" stroke="rgba(189, 15, 225, 1)" stroke-width="4.67"></path><path d="M1099 322 a7 7 0 1 0 14 0 a7 7 0 1 0 -14 0zM1239 350 a7 7 0 1 0 14 0 a7 7 0 1 0 -14 0zM1351 350 a7 7 0 1 0 14 0 a7 7 0 1 0 -14 0zM1183 350 a7 7 0 1 0 14 0 a7 7 0 1 0 -14 0z" fill="rgba(189, 15, 225, 1)"></path><path d="M1106 210L1078 182L1050 182M1022 210L994 238L966 266L938 266M798 238L770 210L742 210L714 210L686 182M1246 210L1218 182L1190 182L1162 182L1134 182L1106 182L1078 154L1050 154L1022 154M1274 210L1246 182L1218 154M630 210L602 182L574 182L546 182L518 182M714 238L686 238L658 238M910 238L882 210M1470 238L1442 238L1414 210L1386 210L1358 210L1330 210L1302 210L1274 210L1246 210L1218 210L1190 210L1162 210L1134 210L1106 210L1078 210L1050 210L1022 210L994 210L966 238L938 238L910 238L882 238L854 238L826 238L798 238L770 238L742 238L714 238L686 210L658 210L630 210L602 210" stroke="rgba(189, 15, 225, 1)" stroke-width="4.67"></path><path d="M595 210 a7 7 0 1 0 14 0 a7 7 0 1 0 -14 0zM1043 182 a7 7 0 1 0 14 0 a7 7 0 1 0 -14 0zM931 266 a7 7 0 1 0 14 0 a7 7 0 1 0 -14 0zM679 182 a7 7 0 1 0 14 0 a7 7 0 1 0 -14 0zM1015 154 a7 7 0 1 0 14 0 a7 7 0 1 0 -14 0zM1211 154 a7 7 0 1 0 14 0 a7 7 0 1 0 -14 0zM511 182 a7 7 0 1 0 14 0 a7 7 0 1 0 -14 0zM651 238 a7 7 0 1 0 14 0 a7 7 0 1 0 -14 0zM875 210 a7 7 0 1 0 14 0 a7 7 0 1 0 -14 0z" fill="rgba(189, 15, 225, 1)"></path><path d="M1106 434L1078 406L1050 406L1022 406M1190 434L1162 406L1134 406L1106 406M630 462L602 434L574 434L546 434L518 434L490 434M1022 434L994 462L966 462M1162 434L1134 462M1302 406L1274 378L1246 378L1218 378M1050 434L1022 462L994 490L966 490L938 462L910 462M574 462L546 490L518 490L490 490L462 490L434 490M1330 378L1302 378M1470 350L1442 350L1414 378L1386 378L1358 378L1330 378L1302 406L1274 406L1246 434L1218 434L1190 434L1162 434L1134 434L1106 434L1078 434L1050 434L1022 434L994 434L966 434L938 434L910 434L882 434L854 434L826 434L798 434L770 434L742 434L714 434L686 434L658 462L630 462L602 462L574 462L546 462L518 462L490 462" stroke="rgba(189, 15, 225, 1)" stroke-width="4.67"></path><path d="M483 462 a7 7 0 1 0 14 0 a7 7 0 1 0 -14 0zM1015 406 a7 7 0 1 0 14 0 a7 7 0 1 0 -14 0zM1099 406 a7 7 0 1 0 14 0 a7 7 0 1 0 -14 0zM483 434 a7 7 0 1 0 14 0 a7 7 0 1 0 -14 0zM959 462 a7 7 0 1 0 14 0 a7 7 0 1 0 -14 0zM1127 462 a7 7 0 1 0 14 0 a7 7 0 1 0 -14 0zM1211 378 a7 7 0 1 0 14 0 a7 7 0 1 0 -14 0zM903 462 a7 7 0 1 0 14 0 a7 7 0 1 0 -14 0zM427 490 a7 7 0 1 0 14 0 a7 7 0 1 0 -14 0zM1295 378 a7 7 0 1 0 14 0 a7 7 0 1 0 -14 0z" fill="rgba(189, 15, 225, 1)"></path><path d="M1330 182L1302 182M1386 182L1358 154M1470 210L1442 210L1414 182L1386 182L1358 182L1330 182L1302 154" stroke="rgba(189, 15, 225, 1)" stroke-width="4.67"></path><path d="M1295 154 a7 7 0 1 0 14 0 a7 7 0 1 0 -14 0zM1295 182 a7 7 0 1 0 14 0 a7 7 0 1 0 -14 0zM1351 154 a7 7 0 1 0 14 0 a7 7 0 1 0 -14 0z" fill="rgba(189, 15, 225, 1)"></path><path d="M1358 406L1330 434M1414 406L1386 434M1470 378L1442 378L1414 406L1386 406L1358 406L1330 406L1302 434L1274 434L1246 462L1218 462L1190 462" stroke="rgba(189, 15, 225, 1)" stroke-width="4.67"></path><path d="M1183 462 a7 7 0 1 0 14 0 a7 7 0 1 0 -14 0zM1323 434 a7 7 0 1 0 14 0 a7 7 0 1 0 -14 0zM1379 434 a7 7 0 1 0 14 0 a7 7 0 1 0 -14 0z" fill="rgba(189, 15, 225, 1)"></path><path d="M994 98L966 70M910 70L882 98M1358 126L1330 126L1302 126M1274 98L1246 126L1218 126M1050 98L1022 126M1470 182L1442 182L1414 154L1386 126L1358 126L1330 98L1302 98L1274 98L1246 98L1218 98L1190 98L1162 98L1134 98L1106 98L1078 98L1050 98L1022 98L994 98L966 98L938 70L910 70L882 70" stroke="rgba(189, 15, 225, 1)" stroke-width="4.67"></path><path d="M875 70 a7 7 0 1 0 14 0 a7 7 0 1 0 -14 0zM959 70 a7 7 0 1 0 14 0 a7 7 0 1 0 -14 0zM875 98 a7 7 0 1 0 14 0 a7 7 0 1 0 -14 0zM1295 126 a7 7 0 1 0 14 0 a7 7 0 1 0 -14 0zM1211 126 a7 7 0 1 0 14 0 a7 7 0 1 0 -14 0zM1015 126 a7 7 0 1 0 14 0 a7 7 0 1 0 -14 0z" fill="rgba(189, 15, 225, 1)"></path><path d="M1470 406L1442 406" stroke="rgba(189, 15, 225, 1)" stroke-width="4.67"></path><path d="M1435 406 a7 7 0 1 0 14 0 a7 7 0 1 0 -14 0z" fill="rgba(189, 15, 225, 1)"></path><path d="M1386 98L1358 70M1470 154L1442 154L1414 126L1386 98L1358 98L1330 70L1302 70L1274 70L1246 70L1218 70L1190 70L1162 70L1134 70L1106 70L1078 70L1050 70" stroke="rgba(189, 15, 225, 1)" stroke-width="4.67"></path><path d="M1043 70 a7 7 0 1 0 14 0 a7 7 0 1 0 -14 0zM1351 70 a7 7 0 1 0 14 0 a7 7 0 1 0 -14 0z" fill="rgba(189, 15, 225, 1)"></path></g></g><defs><mask id="SvgjsMask1312"><rect width="1440" height="560" fill="#ffffff"></rect></mask><mask id="SvgjsMask1313"><rect width="1440" height="560" fill="white"></rect><path d="M1242.5 266 a3.5 3.5 0 1 0 7 0 a3.5 3.5 0 1 0 -7 0zM1326.5 294 a3.5 3.5 0 1 0 7 0 a3.5 3.5 0 1 0 -7 0zM1186.5 266 a3.5 3.5 0 1 0 7 0 a3.5 3.5 0 1 0 -7 0zM1410.5 294 a3.5 3.5 0 1 0 7 0 a3.5 3.5 0 1 0 -7 0z" fill="black"></path><path d="M458.5 266 a3.5 3.5 0 1 0 7 0 a3.5 3.5 0 1 0 -7 0zM738.5 294 a3.5 3.5 0 1 0 7 0 a3.5 3.5 0 1 0 -7 0zM1102.5 294 a3.5 3.5 0 1 0 7 0 a3.5 3.5 0 1 0 -7 0zM1046.5 266 a3.5 3.5 0 1 0 7 0 a3.5 3.5 0 1 0 -7 0zM486.5 294 a3.5 3.5 0 1 0 7 0 a3.5 3.5 0 1 0 -7 0zM514.5 238 a3.5 3.5 0 1 0 7 0 a3.5 3.5 0 1 0 -7 0zM990.5 378 a3.5 3.5 0 1 0 7 0 a3.5 3.5 0 1 0 -7 0zM430.5 238 a3.5 3.5 0 1 0 7 0 a3.5 3.5 0 1 0 -7 0zM430.5 210 a3.5 3.5 0 1 0 7 0 a3.5 3.5 0 1 0 -7 0zM906.5 322 a3.5 3.5 0 1 0 7 0 a3.5 3.5 0 1 0 -7 0z" fill="black"></path><path d="M1102.5 322 a3.5 3.5 0 1 0 7 0 a3.5 3.5 0 1 0 -7 0zM1242.5 350 a3.5 3.5 0 1 0 7 0 a3.5 3.5 0 1 0 -7 0zM1354.5 350 a3.5 3.5 0 1 0 7 0 a3.5 3.5 0 1 0 -7 0zM1186.5 350 a3.5 3.5 0 1 0 7 0 a3.5 3.5 0 1 0 -7 0z" fill="black"></path><path d="M598.5 210 a3.5 3.5 0 1 0 7 0 a3.5 3.5 0 1 0 -7 0zM1046.5 182 a3.5 3.5 0 1 0 7 0 a3.5 3.5 0 1 0 -7 0zM934.5 266 a3.5 3.5 0 1 0 7 0 a3.5 3.5 0 1 0 -7 0zM682.5 182 a3.5 3.5 0 1 0 7 0 a3.5 3.5 0 1 0 -7 0zM1018.5 154 a3.5 3.5 0 1 0 7 0 a3.5 3.5 0 1 0 -7 0zM1214.5 154 a3.5 3.5 0 1 0 7 0 a3.5 3.5 0 1 0 -7 0zM514.5 182 a3.5 3.5 0 1 0 7 0 a3.5 3.5 0 1 0 -7 0zM654.5 238 a3.5 3.5 0 1 0 7 0 a3.5 3.5 0 1 0 -7 0zM878.5 210 a3.5 3.5 0 1 0 7 0 a3.5 3.5 0 1 0 -7 0z" fill="black"></path><path d="M486.5 462 a3.5 3.5 0 1 0 7 0 a3.5 3.5 0 1 0 -7 0zM1018.5 406 a3.5 3.5 0 1 0 7 0 a3.5 3.5 0 1 0 -7 0zM1102.5 406 a3.5 3.5 0 1 0 7 0 a3.5 3.5 0 1 0 -7 0zM486.5 434 a3.5 3.5 0 1 0 7 0 a3.5 3.5 0 1 0 -7 0zM962.5 462 a3.5 3.5 0 1 0 7 0 a3.5 3.5 0 1 0 -7 0zM1130.5 462 a3.5 3.5 0 1 0 7 0 a3.5 3.5 0 1 0 -7 0zM1214.5 378 a3.5 3.5 0 1 0 7 0 a3.5 3.5 0 1 0 -7 0zM906.5 462 a3.5 3.5 0 1 0 7 0 a3.5 3.5 0 1 0 -7 0zM430.5 490 a3.5 3.5 0 1 0 7 0 a3.5 3.5 0 1 0 -7 0zM1298.5 378 a3.5 3.5 0 1 0 7 0 a3.5 3.5 0 1 0 -7 0z" fill="black"></path><path d="M1298.5 154 a3.5 3.5 0 1 0 7 0 a3.5 3.5 0 1 0 -7 0zM1298.5 182 a3.5 3.5 0 1 0 7 0 a3.5 3.5 0 1 0 -7 0zM1354.5 154 a3.5 3.5 0 1 0 7 0 a3.5 3.5 0 1 0 -7 0z" fill="black"></path><path d="M1186.5 462 a3.5 3.5 0 1 0 7 0 a3.5 3.5 0 1 0 -7 0zM1326.5 434 a3.5 3.5 0 1 0 7 0 a3.5 3.5 0 1 0 -7 0zM1382.5 434 a3.5 3.5 0 1 0 7 0 a3.5 3.5 0 1 0 -7 0z" fill="black"></path><path d="M878.5 70 a3.5 3.5 0 1 0 7 0 a3.5 3.5 0 1 0 -7 0zM962.5 70 a3.5 3.5 0 1 0 7 0 a3.5 3.5 0 1 0 -7 0zM878.5 98 a3.5 3.5 0 1 0 7 0 a3.5 3.5 0 1 0 -7 0zM1298.5 126 a3.5 3.5 0 1 0 7 0 a3.5 3.5 0 1 0 -7 0zM1214.5 126 a3.5 3.5 0 1 0 7 0 a3.5 3.5 0 1 0 -7 0zM1018.5 126 a3.5 3.5 0 1 0 7 0 a3.5 3.5 0 1 0 -7 0z" fill="black"></path><path d="M1438.5 406 a3.5 3.5 0 1 0 7 0 a3.5 3.5 0 1 0 -7 0z" fill="black"></path><path d="M1046.5 70 a3.5 3.5 0 1 0 7 0 a3.5 3.5 0 1 0 -7 0zM1354.5 70 a3.5 3.5 0 1 0 7 0 a3.5 3.5 0 1 0 -7 0z" fill="black"></path></mask></defs></svg>