<svg width="40" height="40" viewBox="0 0 40 40" fill="none" xmlns="http://www.w3.org/2000/svg">
<path fill-rule="evenodd" clip-rule="evenodd" d="M20 40C31.046 40 40 31.046 40 20C40 8.954 31.046 0 20 0C8.954 0 0 8.954 0 20C0 31.046 8.954 40 20 40ZM10.188 32.64L32.64 10.188C35.0331 13.2663 36.2197 17.1126 35.9769 21.0041C35.7342 24.8956 34.0788 28.5646 31.3217 31.3217C28.5646 34.0788 24.8956 35.7342 21.0041 35.9769C17.1126 36.2197 13.2663 35.0331 10.188 32.64V32.64ZM7.36 29.812C4.96694 26.7337 3.78032 22.8874 4.02307 18.9959C4.26583 15.1044 5.92125 11.4354 8.67832 8.67832C11.4354 5.92125 15.1044 4.26583 18.9959 4.02307C22.8874 3.78032 26.7337 4.96694 29.812 7.36L7.36 29.812Z" fill="white"/>
</svg>
