<svg width="126" height="126" viewBox="0 0 126 126" fill="none" xmlns="http://www.w3.org/2000/svg">
<path d="M112.107 0.5H13.8929C6.49888 0.5 0.5 6.49888 0.5 13.8929V112.107C0.5 119.501 6.49888 125.5 13.8929 125.5H112.107C119.501 125.5 125.5 119.501 125.5 112.107V13.8929C125.5 6.49888 119.501 0.5 112.107 0.5ZM68.5246 97.9888C68.5246 110.154 61.3817 115.706 50.9743 115.706C41.5714 115.706 36.1306 110.852 33.3404 104.964L42.9107 99.1886C44.7522 102.453 46.4263 105.215 50.4721 105.215C54.3225 105.215 56.7779 103.709 56.7779 97.8214V57.894H68.5246V97.9888ZM96.3147 115.706C85.4051 115.706 78.346 110.517 74.9141 103.709L84.4844 98.1842C86.9955 102.286 90.2879 105.327 96.0636 105.327C100.919 105.327 104.044 102.9 104.044 99.5234C104.044 95.5056 100.863 94.0826 95.4777 91.7109L92.548 90.4554C84.0658 86.856 78.4576 82.308 78.4576 72.7377C78.4576 63.9208 85.1819 57.2243 95.6451 57.2243C103.123 57.2243 108.48 59.8192 112.33 66.6272L103.179 72.4866C101.17 68.8873 98.9933 67.4643 95.6172 67.4643C92.1853 67.4643 90.0089 69.6406 90.0089 72.4866C90.0089 76.0022 92.1853 77.4252 97.2355 79.6295L100.165 80.885C110.154 85.154 115.762 89.5346 115.762 99.356C115.762 109.903 107.448 115.706 96.3147 115.706Z" fill="#0E0240"/>
</svg>
