<svg width="126" height="126" viewBox="0 0 126 126" fill="none" xmlns="http://www.w3.org/2000/svg">
<path d="M58.9067 0.53361C58.6382 0.558024 57.7827 0.643474 57.0127 0.704509C39.2588 2.3051 22.6284 11.8832 12.0957 26.6049C6.23047 34.7905 2.47949 44.0757 1.06201 53.9106C0.561035 57.3433 0.5 58.3574 0.5 63.0122C0.5 67.667 0.561035 68.6812 1.06201 72.1138C4.45898 95.5831 21.1621 115.302 43.8159 122.608C47.873 123.915 52.1494 124.807 57.0127 125.344C58.9067 125.552 67.0933 125.552 68.9873 125.344C77.3818 124.416 84.4932 122.339 91.5068 118.759C92.582 118.21 92.79 118.063 92.6431 117.941C92.5454 117.867 87.9634 111.722 82.4648 104.294L72.4697 90.794L59.9453 72.2608C53.0537 62.0713 47.3843 53.7393 47.3354 53.7393C47.2866 53.7271 47.2378 61.9619 47.2134 72.0161C47.1763 89.6212 47.1646 90.3297 46.9443 90.7452C46.627 91.3438 46.3823 91.5884 45.8691 91.857C45.478 92.0523 45.1357 92.0889 43.291 92.0889H41.1768L40.6152 91.7349C40.267 91.5166 39.9841 91.2084 39.7964 90.8428L39.5396 90.293L39.564 65.7979L39.6006 41.29L39.9795 40.8135C40.1748 40.5571 40.5903 40.2275 40.8838 40.0683C41.3848 39.8242 41.5801 39.7998 43.6938 39.7998C46.1865 39.7998 46.6021 39.8974 47.2495 40.6059C47.4331 40.8013 54.2144 51.0151 62.3276 63.3179C70.4414 75.6202 81.5366 92.419 86.9858 100.666L96.8833 115.656L97.3843 115.326C101.82 112.443 106.512 108.338 110.226 104.062C118.132 94.9844 123.227 83.9161 124.938 72.1143C125.439 68.6812 125.5 67.667 125.5 63.0127C125.5 58.3574 125.439 57.3438 124.938 53.9106C121.541 30.4414 104.838 10.7226 82.1841 3.41692C78.188 2.12199 73.936 1.2299 69.1704 0.692302C67.9976 0.570231 59.9209 0.435954 58.9067 0.53361ZM84.4932 38.3335C85.0796 38.6264 85.5562 39.1889 85.7271 39.7754C85.8247 40.0928 85.8491 46.8857 85.8247 62.1939L85.7886 84.1602L81.915 78.2227L78.0293 72.2852V56.3174C78.0293 45.9936 78.0781 40.1904 78.1514 39.9096C78.3467 39.2256 78.7749 38.688 79.3613 38.3701C79.8623 38.1137 80.0454 38.0893 81.9639 38.0893C83.7725 38.0893 84.0898 38.1137 84.4932 38.3335Z" fill="#0E0240"/>
</svg>
