<svg width="134" height="126" viewBox="0 0 134 126" fill="none" xmlns="http://www.w3.org/2000/svg">
<path d="M66.3958 125.5C65.9583 125.5 65.5208 125.309 65.125 124.99L61.125 121.354C60.5208 120.844 60.8125 120.653 61.0208 120.557C61.8125 120.143 61.9792 120.047 62.8333 119.282C62.9167 119.218 63.0417 119.25 63.125 119.314L66.2083 122.12C66.3125 122.215 66.4792 122.215 66.5833 122.12L78.625 111.469C78.7292 111.373 78.8125 111.182 78.8125 110.959V89.6887C78.8125 89.4655 78.75 89.2742 78.625 89.1785L66.5833 78.5595C66.4792 78.4638 66.3333 78.4638 66.2083 78.5595L54.1667 89.1785C54.0417 89.2742 53.9792 89.4974 53.9792 89.6887V110.959C53.9792 111.15 54.0625 111.341 54.1667 111.437L57.4583 114.339C59.25 115.71 60.3542 114.084 60.3542 112.489V91.4745C60.3542 91.1875 60.5 90.9324 60.7083 90.9324H62.2292C62.4167 90.9324 62.5833 91.1556 62.5833 91.4745V112.489C62.5833 116.157 61.2917 118.229 59.0208 118.229C58.3333 118.229 57.7708 118.229 56.25 117.081L53.0833 114.307C52.3125 113.605 51.8125 112.33 51.8125 110.959V89.6887C51.8125 88.3175 52.2917 87.0101 53.0833 86.3404L65.125 75.6895C65.8958 75.0198 66.8958 75.0198 67.6458 75.6895L79.6875 86.3404C80.4583 87.0419 80.9583 88.3175 80.9583 89.6887V110.959C80.9583 112.33 80.4792 113.637 79.6875 114.307L67.6458 124.958C67.2917 125.309 66.8542 125.5 66.3958 125.5ZM76.125 104.517C76.125 100.531 74.375 99.4786 70.6667 98.7133C66.9167 97.948 66.5417 97.5653 66.5417 96.226C66.5417 95.1098 66.8542 93.643 69.625 93.643C72.1042 93.643 73.0208 94.4721 73.3958 97.0232C73.4375 97.2783 73.5625 97.4377 73.7292 97.4377H75.2917C75.3958 97.4377 75.4792 97.374 75.5417 97.2783C75.6042 97.1507 75.6458 97.0232 75.625 96.8637C75.375 92.4631 73.4792 90.4222 69.625 90.4222C66.1875 90.4222 64.1458 92.6544 64.1458 96.3535C64.1458 100.403 66.1875 101.488 69.4792 101.998C73.4167 102.604 73.7292 103.465 73.7292 104.645C73.7292 106.717 72.6458 107.578 70.1042 107.578C66.9167 107.578 66.2083 106.367 65.9792 103.943C65.9583 103.688 65.8125 103.497 65.625 103.497H64.0625C63.875 103.497 63.7083 103.72 63.7083 104.039C63.7083 107.132 64.8125 110.831 70.0833 110.831C73.9375 110.831 76.125 108.535 76.125 104.517ZM87.4792 88.5407C87.4792 90.4859 86.4375 92.0804 85.1667 92.0804C83.8958 92.0804 82.8542 90.4859 82.8542 88.5407C82.8542 86.5317 83.9375 85.0011 85.1667 85.0011C86.4167 84.9692 87.4792 86.5317 87.4792 88.5407ZM87.1042 88.5407C87.1042 86.8825 86.2292 85.575 85.1458 85.575C84.0833 85.575 83.2083 86.8825 83.2083 88.5407C83.2083 90.1989 84.0833 91.5383 85.1458 91.5383C86.2292 91.5064 87.1042 90.1671 87.1042 88.5407ZM86.1667 90.5178H85.625C85.6042 90.3265 85.5208 89.3061 85.5208 89.2742C85.4792 89.0509 85.4375 88.9234 85.25 88.9234H84.7917V90.5178H84.2917V86.5317H85.1875C85.5 86.5317 86.1042 86.5317 86.1042 87.5841C86.1042 88.3175 85.7917 88.477 85.6042 88.5726C85.9583 88.6045 85.9792 88.9553 86.0417 89.4655C86.0625 89.7844 86.1042 90.3265 86.1667 90.5178ZM85.5833 87.7116C85.5833 87.1695 85.3333 87.1695 85.2083 87.1695H84.7917V88.2856H85.1875C85.5208 88.2856 85.5833 87.9348 85.5833 87.7116ZM29.1042 42.2699C29.1042 41.4089 28.8125 40.6435 28.3333 40.229L15.5625 28.9722C15.3542 28.7809 15.1042 28.6852 14.8542 28.6533H14.7292C14.4792 28.6533 14.25 28.7809 14.0208 28.9722L1.27083 40.229C0.791667 40.6435 0.5 41.4408 0.5 42.2699L0.520833 72.5644C0.520833 72.9789 0.666667 73.3616 0.895833 73.5848C1.125 73.808 1.41667 73.808 1.66667 73.5848L9.25 66.92C9.72917 66.4736 10.0208 65.7082 10.0208 64.8791V50.7204C10.0208 49.8913 10.3125 49.0941 10.7917 48.6796L14.0208 45.8414C14.2708 45.6182 14.5208 45.5225 14.7917 45.5225C15.0625 45.5225 15.3333 45.6182 15.5625 45.8414L18.7917 48.6796C19.2708 49.0941 19.5625 49.8913 19.5625 50.7204V64.8791C19.5625 65.7082 19.8542 66.5055 20.3333 66.92L27.9167 73.5848C28.1458 73.808 28.4583 73.808 28.6875 73.5848C28.9167 73.3935 29.0625 72.9789 29.0625 72.5644L29.1042 42.2699ZM98.9375 9.20105V65.4531C98.9375 66.2822 98.6458 67.0795 98.1667 67.494L85.3958 78.7827C84.9167 79.1973 84.3333 79.1973 83.8542 78.7827L71.0833 67.494C70.6042 67.0795 70.3125 66.2822 70.3125 65.4531V42.8758C70.3125 42.0466 70.6042 41.2494 71.0833 40.8349L83.8542 29.5462C84.3333 29.1316 84.9167 29.1316 85.3958 29.5462L88.5833 32.3524C88.9375 32.6713 89.3958 32.2567 89.3958 31.6509V1.67526C89.3958 0.782369 90.0208 0.208368 90.5417 0.654813L98.1458 7.16016C98.625 7.54282 98.9375 8.34005 98.9375 9.20105ZM89.3542 50.3059C89.3542 50.0827 89.2708 49.8913 89.1667 49.7957L84.7917 45.9052C84.6667 45.8095 84.5208 45.8095 84.3958 45.9052L80.0208 49.7957C79.8958 49.8913 79.8333 50.0827 79.8333 50.3059V58.0549C79.8333 58.2781 79.9167 58.4695 80.0208 58.5651L84.3958 62.4237C84.5208 62.5193 84.6667 62.5193 84.7708 62.4237L89.1458 58.5651C89.2708 58.4695 89.3333 58.2781 89.3333 58.0549V50.3059H89.3542ZM133.062 50.0827C133.542 49.6681 133.833 48.8709 133.833 48.0418V42.5888C133.833 41.7597 133.542 40.9624 133.062 40.5479L120.375 29.2592C119.896 28.8446 119.312 28.8446 118.833 29.2592L106.062 40.5479C105.583 40.9624 105.292 41.7597 105.292 42.5888V65.1661C105.292 66.0271 105.583 66.7925 106.062 67.207L118.75 78.2725C119.208 78.687 119.792 78.687 120.271 78.2725L127.937 71.7353C128.458 71.2888 128.458 70.1408 127.937 69.6944L115.083 58.4057C114.833 58.1825 114.687 57.7998 114.687 57.3852V50.3059C114.687 49.8913 114.833 49.5087 115.083 49.2854L119.083 45.7458C119.312 45.5225 119.625 45.5225 119.854 45.7458L123.854 49.2854C124.083 49.5087 124.25 49.8913 124.25 50.3059V55.8546C124.25 56.7475 124.896 57.3215 125.417 56.875L133.062 50.0827ZM116.958 51.1988C116.875 51.2944 116.812 51.422 116.812 51.5814V55.9183C116.812 56.0778 116.875 56.2372 116.958 56.301L119.417 58.4695C119.5 58.5651 119.625 58.5651 119.708 58.4695L122.167 56.301C122.25 56.2053 122.312 56.0778 122.312 55.9183V51.5814C122.312 51.422 122.25 51.2626 122.167 51.1988L119.708 49.0303C119.625 48.9347 119.5 48.9347 119.417 49.0303L116.958 51.1988ZM64 65.0705V42.6207C64 41.7915 63.6667 40.9943 63.1875 40.5798L50.4583 29.3549C50.0208 28.9722 49.4167 28.9084 48.9167 29.3549L36.1875 40.5798C35.7083 40.9943 35.375 41.7597 35.375 42.6207V65.0705C35.375 65.9634 35.7708 66.7287 36.2083 67.1114L48.9583 78.3363C49.4583 78.7827 50.0417 78.7508 50.5 78.3363L63.2083 67.1114C63.5833 66.7925 63.8542 66.2504 63.9583 65.6126C63.9792 65.4531 64 65.2618 64 65.0705ZM48.5208 25.2412L48.3542 25.4006H48.5833L48.5208 25.2412ZM64.3958 66.7606L64.3125 66.5374V66.8244L64.3958 66.7606Z" fill="#0E0240"/>
</svg>
