<svg width="126" height="126" viewBox="0 0 126 126" fill="none" xmlns="http://www.w3.org/2000/svg">
<path d="M102.6 41.0077C101.281 40.5055 99.9629 40.0312 98.6445 39.5848C98.8643 38.5525 99.0596 37.5202 99.2549 36.4879C102.258 19.8593 100.28 6.49507 93.6152 2.08683C87.1943 -2.12612 76.7207 2.25423 66.125 12.8005C65.0752 13.8329 64.0498 14.921 63.0732 16.0091C62.4141 15.2837 61.7305 14.5583 61.0469 13.8608C49.9385 2.58903 38.8057 -2.15402 32.1406 2.28213C25.7441 6.52298 23.8398 19.106 26.5254 34.8418C26.7939 36.4042 27.0869 37.9387 27.4287 39.5011C25.8662 40.0033 24.3281 40.5613 22.8877 41.1472C9.85058 46.3088 0.5 54.4557 0.5 62.8816C0.5 71.5865 10.4609 80.3193 24.0107 85.6203C25.1094 86.0388 26.208 86.4573 27.3311 86.82C26.9648 88.494 26.6475 90.1402 26.3545 91.8421C23.791 107.327 25.793 119.603 32.1895 123.816C38.7812 128.168 49.8652 123.704 60.6562 112.907C61.5107 112.042 62.3652 111.149 63.2197 110.2C64.2939 111.4 65.417 112.544 66.54 113.66C76.9893 123.927 87.3164 128.085 93.6885 123.872C100.28 119.519 102.429 106.322 99.6455 90.2518C99.4258 89.0242 99.1816 87.7686 98.9131 86.4852C99.6943 86.2341 100.451 85.9551 101.208 85.6761C115.295 80.3472 125.5 71.726 125.5 62.8816C125.5 54.4278 115.881 46.2251 102.6 41.0077ZM69.5674 17.3204C78.6494 8.28069 87.1211 4.73736 90.9785 7.27628C95.1045 9.98261 96.6914 20.9195 94.1035 35.2882C93.9326 36.2368 93.7617 37.1575 93.542 38.0782C88.1221 36.6832 82.6289 35.6788 77.1113 35.1208C73.9375 29.9313 70.4707 24.9651 66.7109 20.3057C67.6631 19.2734 68.5908 18.2969 69.5674 17.3204ZM41.3203 77.3618C42.5654 79.7892 43.835 82.2165 45.1777 84.588C41.3691 84.1137 37.585 83.4162 33.8496 82.4955C34.9238 78.4778 36.2666 74.3207 37.8291 70.0798C38.9521 72.5351 40.0996 74.9624 41.3203 77.3618ZM33.9229 43.7978C37.4385 42.905 41.1738 42.1796 45.0557 41.6215C43.7617 43.9373 42.4922 46.3088 41.2959 48.7082C40.0996 51.0797 38.9277 53.5071 37.8291 55.9623C36.291 51.8052 34.9971 47.7317 33.9229 43.7978ZM40.6123 63.0211C42.2236 59.1708 43.9814 55.4043 45.8369 51.6936C47.6924 47.9828 49.6943 44.3837 51.7939 40.8403C55.4561 40.5334 59.1914 40.366 63 40.366C66.8086 40.366 70.5684 40.5334 74.2061 40.8403C76.2812 44.3558 78.2588 47.9549 80.1387 51.6378C82.0186 55.3206 83.7764 59.0871 85.4365 62.9095C83.8008 66.7597 82.043 70.5542 80.1631 74.2928C78.3076 78.0035 76.3301 81.6027 74.2549 85.1739C70.6172 85.4808 66.833 85.6203 63 85.6203C59.167 85.6203 55.4561 85.4808 51.8672 85.2297C49.7432 81.6864 47.7412 78.0593 45.8613 74.3486C43.9814 70.6379 42.248 66.8713 40.6123 63.0211ZM84.7041 77.306C85.9492 74.8508 87.1211 72.3677 88.2686 69.8567C89.8311 73.9022 91.1982 78.0035 92.3945 82.2165C88.6104 83.193 84.7773 83.9463 80.9199 84.4485C82.2383 82.1049 83.4834 79.7054 84.7041 77.306ZM88.2197 55.9623C87.0723 53.5071 85.9004 51.0518 84.6797 48.6524C83.4834 46.2809 82.2383 43.9373 80.9443 41.6215C84.875 42.1796 88.6348 42.9329 92.1504 43.8536C91.0273 47.9828 89.709 52.0005 88.2197 55.9623ZM63.0488 24.5745C65.6123 27.7551 68.0293 31.1031 70.2754 34.5628C65.4414 34.3117 60.583 34.3117 55.749 34.5628C58.1416 30.9636 60.6074 27.6156 63.0488 24.5745ZM34.7285 7.47159C38.8301 4.73736 47.9365 8.6434 57.5312 18.3527C58.1416 18.9665 58.752 19.6361 59.3867 20.3057C55.6025 24.9651 52.1113 29.9313 48.9131 35.1208C43.3955 35.6788 37.9268 36.6553 32.5068 38.0224C32.1895 36.5995 31.9209 35.1487 31.6523 33.6979C29.3574 20.1941 30.8711 10.0105 34.7285 7.47159ZM28.7471 81.0168C27.7217 80.682 26.7207 80.3193 25.7197 79.9287C20.5195 78.0593 14.6113 75.1019 10.3389 71.2238C7.87305 69.2707 6.21289 66.2575 5.74902 62.8816C5.74902 57.7758 13.4639 51.2471 24.5967 46.811C25.9883 46.253 27.4043 45.7508 28.8203 45.2765C30.4805 51.3308 32.4824 57.2736 34.8018 63.0211C32.458 68.8522 30.4316 74.8787 28.7471 81.0168ZM57.2139 108.359C53.1855 112.572 48.5225 115.92 43.4443 118.208C40.7344 119.687 37.6094 119.826 34.8262 118.571C30.9443 116.004 29.333 106.155 31.5303 92.9023C31.7988 91.3399 32.0918 89.7775 32.4336 88.2429C37.9023 89.5822 43.4199 90.5029 49.0107 90.9772C52.2334 96.1945 55.7734 101.189 59.5576 105.876C58.7764 106.741 57.9951 107.578 57.2139 108.359ZM63.1953 101.579C60.7051 98.5102 58.2148 95.1064 55.7979 91.4515C58.1416 91.5631 60.5586 91.6189 63 91.6189C65.5146 91.6189 67.9805 91.5631 70.4219 91.4236C68.1758 94.9669 65.7588 98.3428 63.1953 101.579ZM95.1045 109.949C94.8848 113.353 93.4199 116.534 91.0762 118.682C87.1943 121.249 78.918 117.901 69.9824 109.14C68.957 108.136 67.9316 107.048 66.8818 105.932C70.6172 101.217 74.0596 96.2224 77.1846 90.9772C82.7754 90.4471 88.3418 89.4706 93.835 88.0476C94.0791 89.1916 94.2988 90.3355 94.4941 91.4515C95.6904 97.4779 95.8857 103.756 95.1045 109.949ZM99.5479 79.9566C98.8643 80.2076 98.1807 80.4588 97.4727 80.682C95.7637 74.5997 93.6641 68.6569 91.2471 62.8816C93.5908 57.1899 95.5684 51.3308 97.2285 45.3323C98.498 45.7508 99.7188 46.1972 100.891 46.6436C112.268 51.1076 120.251 57.7479 120.251 62.8258C120.251 68.2942 111.73 75.353 99.5479 79.9566ZM63 75.7715C69.1768 75.7715 74.1816 70.0519 74.1816 62.9932C74.1816 55.9344 69.1768 50.2148 63 50.2148C56.8232 50.2148 51.8184 55.9344 51.8184 62.9932C51.8184 70.0519 56.8232 75.7715 63 75.7715Z" fill="#0E0240"/>
</svg>
